<svg xmlns="http://www.w3.org/2000/svg" viewBox="0 0 512 512">
  <defs>
    <linearGradient id="folderGrad" x1="0%" y1="0%" x2="100%" y2="100%">
      <stop offset="0%" stop-color="#6366F1" />
      <stop offset="100%" stop-color="#3730A3" />
    </linearGradient>
    <linearGradient id="lockGrad" x1="0%" y1="0%" x2="0%" y2="100%">
      <stop offset="0%" stop-color="#34D399" />
      <stop offset="100%" stop-color="#059669" />
    </linearGradient>
    <filter id="shadow" x="-10%" y="-10%" width="120%" height="120%">
      <feDropShadow dx="0" dy="8" stdDeviation="8" flood-opacity="0.3" />
    </filter>
  </defs>

  <rect width="512" height="512" fill="transparent" />

  <path d="M64 128c0-26.5 21.5-48 48-48h112l48 48h128c26.5 0 48 21.5 48 48v224c0 26.5-21.5 48-48 48H112c-26.5 0-48-21.5-48-48V128z" fill="url(#folderGrad)" filter="url(#shadow)"/>
  
  <path d="M112 80h112l48 48h128" fill="none" stroke="#818CF8" stroke-width="6" stroke-linecap="round"/>

  <rect x="206" y="260" width="100" height="80" rx="16" fill="url(#lockGrad)" filter="url(#shadow)"/>
  
  <path d="M226 260v-30c0-16.5 13.5-30 30-30s30 13.5 30 30v30" fill="none" stroke="#D1FAE5" stroke-width="16" stroke-linecap="round"/>
  
  <circle cx="256" cy="300" r="12" fill="#FFFFFF"/>
  <path d="M256 312v16" fill="none" stroke="#FFFFFF" stroke-width="8" stroke-linecap="round"/>
</svg>